<svg id="svg" version="1.1" xmlns="http://www.w3.org/2000/svg" xmlns:xlink="http://www.w3.org/1999/xlink" width="400" height="400" viewBox="0, 0, 400,400"><g id="svgg"><path id="path0" d="M280.093 137.467 C 262.618 141.900,241.258 166.169,235.807 187.783 C 225.700 227.861,262.342 245.876,290.094 214.473 C 313.341 188.168,318.124 152.466,299.805 141.987 C 298.730 141.372,297.295 140.393,296.614 139.811 C 293.364 137.031,285.958 135.980,280.093 137.467 M50.102 137.532 C 46.962 138.718,19.394 190.872,11.713 210.156 C 8.213 218.944,8.264 224.868,11.873 228.694 C 14.440 231.416,15.631 230.607,17.881 224.609 C 22.689 211.793,40.188 176.211,43.608 172.298 C 44.023 171.823,44.009 172.935,43.540 177.645 C 42.026 192.841,41.827 213.708,43.138 219.673 C 44.139 224.226,46.604 227.493,50.333 229.209 C 53.717 230.767,53.276 231.305,59.718 217.773 C 67.471 201.490,79.135 179.203,87.552 164.589 C 93.763 153.806,94.929 150.756,94.913 145.328 C 94.895 138.912,91.852 135.672,88.995 139.027 C 85.394 143.258,69.980 170.600,60.058 190.356 C 57.274 195.901,54.913 200.356,54.813 200.256 C 54.311 199.754,56.844 171.387,58.220 162.109 C 59.713 152.035,59.860 150.627,59.653 148.345 C 59.171 143.031,53.260 136.338,50.102 137.532 M363.177 137.520 C 345.893 139.531,321.856 162.918,314.091 185.278 C 304.273 213.550,318.980 235.093,343.915 228.964 C 356.330 225.913,368.056 213.562,368.137 203.452 L 368.164 200.069 370.117 199.824 C 371.191 199.690,373.578 199.615,375.421 199.659 C 380.211 199.772,380.659 199.168,378.535 195.464 C 374.708 188.791,368.423 187.758,350.222 190.808 C 345.725 191.562,339.936 192.350,337.357 192.558 C 331.569 193.027,330.807 193.493,331.825 195.939 C 334.298 201.879,341.706 204.247,352.517 202.552 C 357.571 201.759,357.520 201.724,355.658 204.779 C 346.166 220.350,331.183 227.816,326.093 219.512 C 321.122 211.403,324.121 191.177,332.374 177.155 C 341.275 162.032,359.653 146.505,369.898 145.452 C 374.736 144.956,375.209 146.985,372.235 155.472 C 368.300 166.702,368.272 166.806,368.470 169.389 C 368.896 174.962,374.973 181.148,377.374 178.453 C 378.515 177.172,385.100 160.698,385.595 157.885 C 387.367 147.825,376.379 136.034,366.280 137.161 C 366.027 137.189,364.631 137.351,363.177 137.520 M153.884 138.024 C 151.922 139.002,135.990 166.411,122.854 191.406 C 109.883 216.087,100.615 226.165,92.989 223.880 C 84.769 221.418,89.320 205.837,107.665 173.633 C 119.705 152.498,121.392 147.367,118.325 141.226 C 115.605 135.780,114.012 136.540,107.876 146.206 C 92.370 170.635,82.557 189.307,79.077 201.008 C 70.171 230.943,102.900 242.366,122.810 216.271 C 131.286 205.162,154.477 163.343,157.827 153.125 C 160.369 145.376,157.923 136.010,153.884 138.024 M229.781 137.979 C 225.487 140.049,192.890 199.221,187.926 213.957 C 186.361 218.603,186.978 221.216,190.968 226.839 C 193.930 231.013,193.950 231.015,204.208 228.555 C 214.878 225.996,222.144 224.660,227.642 224.246 C 233.643 223.795,234.368 222.987,231.995 219.404 C 228.122 213.557,219.472 212.850,202.152 216.964 C 200.864 217.269,199.736 217.444,199.645 217.353 C 199.164 216.872,209.180 197.878,225.926 167.514 C 235.338 150.449,236.895 142.897,231.953 138.293 C 230.992 137.397,230.988 137.397,229.781 137.979 M190.430 139.658 C 180.234 141.440,174.101 142.188,169.666 142.188 C 163.920 142.188,163.055 142.986,164.832 146.654 C 168.243 153.697,174.036 154.695,191.176 151.193 C 195.454 150.320,199.015 149.666,199.091 149.742 C 199.166 149.817,197.336 151.355,195.024 153.158 C 175.244 168.586,147.055 196.053,136.350 210.331 C 130.816 217.712,130.731 219.154,135.414 226.247 C 138.672 231.183,139.121 231.243,150.834 228.333 C 160.729 225.875,169.289 224.360,175.937 223.889 C 182.190 223.446,182.873 222.415,179.512 218.488 C 175.295 213.562,169.905 213.193,152.636 216.647 C 148.823 217.410,145.533 217.975,145.326 217.904 C 144.357 217.569,163.461 197.657,175.977 185.956 C 188.329 174.407,195.816 167.980,205.954 160.220 C 213.788 154.224,214.113 153.530,211.733 147.898 C 207.552 138.007,205.164 137.083,190.430 139.658 M295.259 146.385 C 301.673 151.165,299.482 171.600,290.620 189.648 C 278.277 214.785,256.872 230.178,249.577 219.164 C 243.923 210.629,247.212 189.749,256.627 174.414 C 267.756 156.286,288.424 141.290,295.259 146.385 " stroke="none" fill="#040404" fill-rule="evenodd"></path><path id="path1" d="M189.559 4.333 C 109.503 8.497,39.687 61.605,14.243 137.695 C 7.985 156.407,5.100 172.589,4.090 194.629 L 3.843 200.000 9.685 200.000 L 15.526 200.000 22.588 185.840 C 32.205 166.555,45.926 141.570,48.725 138.243 C 50.116 136.589,51.758 136.702,54.181 138.617 C 60.045 143.252,60.985 147.144,59.057 158.789 C 57.684 167.084,55.020 193.814,55.090 198.588 C 55.097 199.042,57.225 195.195,59.819 190.039 C 70.106 169.592,86.308 141.008,89.322 137.988 C 91.834 135.471,94.898 138.869,95.221 144.531 C 95.547 150.233,94.248 153.676,87.040 166.211 C 80.966 176.776,69.141 198.972,69.141 199.809 C 69.141 199.927,71.356 199.974,74.063 199.914 L 78.985 199.805 80.520 195.703 C 84.572 184.871,94.632 166.420,107.887 145.508 C 113.141 137.219,114.543 136.235,117.166 138.993 C 122.559 144.662,121.010 150.806,108.727 172.461 C 101.030 186.031,98.404 190.908,95.953 196.191 L 94.186 200.000 106.055 200.000 L 117.924 200.000 120.944 194.238 C 131.393 174.298,149.591 142.258,152.338 138.965 C 155.699 134.935,159.783 139.817,159.273 147.256 C 158.827 153.762,152.158 167.958,137.642 193.300 C 135.630 196.812,133.984 199.757,133.984 199.843 C 133.984 199.929,136.279 200.000,139.083 200.000 L 144.182 200.000 154.111 189.903 C 168.427 175.342,182.313 162.665,193.689 153.770 C 198.569 149.954,198.627 149.985,189.963 151.789 C 174.752 154.957,167.947 153.702,164.732 147.136 C 162.639 142.861,163.078 142.374,169.336 142.024 C 175.564 141.675,179.055 141.250,189.063 139.622 C 193.682 138.870,198.032 138.165,198.730 138.055 L 200.000 137.855 200.000 70.881 L 200.000 3.906 197.754 3.965 C 196.519 3.997,192.831 4.162,189.559 4.333 M194.531 169.771 C 187.742 175.499,176.437 185.825,168.555 193.496 L 161.914 199.959 177.754 199.980 L 193.595 200.000 196.800 193.652 L 200.004 187.305 200.002 176.465 C 200.001 170.503,199.868 165.631,199.707 165.638 C 199.546 165.646,197.217 167.505,194.531 169.771 M42.115 175.500 C 37.706 183.166,29.297 199.107,29.297 199.799 C 29.297 199.910,32.094 200.000,35.514 200.000 L 41.730 200.000 41.948 197.168 C 42.068 195.610,42.270 192.139,42.397 189.453 C 42.525 186.768,42.860 182.021,43.143 178.906 C 43.426 175.791,43.625 173.203,43.585 173.156 C 43.545 173.109,42.884 174.163,42.115 175.500 M206.884 203.223 C 203.945 208.634,200.250 216.396,200.496 216.642 C 200.624 216.770,203.069 216.424,205.931 215.873 C 222.036 212.772,228.588 213.572,232.235 219.083 C 234.776 222.923,234.076 223.979,228.711 224.399 C 222.509 224.885,202.058 228.852,200.366 229.898 C 200.140 230.038,200.000 261.927,200.000 313.140 L 200.000 396.157 205.371 395.910 C 258.226 393.488,302.654 374.324,338.489 338.489 C 374.324 302.654,393.488 258.226,395.910 205.371 L 396.157 200.000 382.746 200.006 C 375.371 200.009,369.160 200.141,368.945 200.299 C 368.730 200.457,368.532 201.992,368.504 203.711 C 368.342 213.725,356.700 225.947,344.283 229.137 C 325.694 233.914,311.780 223.680,310.680 204.420 L 310.428 200.000 305.661 200.000 L 300.895 200.000 299.030 203.027 C 284.700 226.294,265.419 235.804,248.633 227.884 C 239.720 223.680,234.617 215.398,233.762 203.753 L 233.487 200.000 221.061 200.000 L 208.635 200.000 206.884 203.223 M247.479 200.488 C 245.790 205.907,247.732 216.940,250.944 220.175 C 257.246 226.524,271.938 218.131,283.215 201.740 L 284.413 200.000 266.022 200.000 C 251.651 200.000,247.598 200.107,247.479 200.488 M324.391 201.270 C 323.287 206.259,324.319 215.876,326.325 219.299 C 330.822 226.972,344.590 220.714,353.925 206.753 C 357.208 201.845,357.370 202.152,351.915 202.953 C 344.216 204.082,337.222 203.075,335.114 200.535 C 334.780 200.133,333.427 200.000,329.671 200.000 L 324.671 200.000 324.391 201.270 " stroke="none" fill="#d3dbfb" fill-rule="evenodd"></path><path id="path2" d="" stroke="none" fill="#a47cee" fill-rule="evenodd"></path><path id="path3" d="M200.000 70.646 L 200.000 137.891 201.296 137.891 C 205.554 137.891,208.234 139.936,210.886 145.209 C 215.029 153.451,214.850 153.932,204.766 161.660 L 200.000 165.312 200.000 176.016 C 200.000 181.902,200.066 186.719,200.147 186.719 C 200.229 186.719,202.189 183.159,204.505 178.809 C 215.964 157.276,227.455 138.535,229.875 137.433 C 234.052 135.529,236.234 146.085,233.277 153.891 C 231.982 157.310,231.135 158.918,219.062 180.859 C 215.102 188.057,211.122 195.308,210.218 196.973 L 208.574 200.000 221.053 200.000 L 233.532 200.000 233.776 197.363 C 237.091 161.642,277.382 124.815,296.986 139.588 C 297.892 140.271,299.662 141.443,300.919 142.192 C 313.785 149.859,314.982 171.743,303.782 194.531 C 302.462 197.217,301.320 199.546,301.244 199.707 C 301.169 199.868,303.227 200.000,305.819 200.000 C 310.399 200.000,310.536 199.975,310.690 199.121 C 310.777 198.638,311.134 196.411,311.483 194.172 C 315.620 167.629,344.784 137.239,366.293 137.059 C 380.535 136.939,389.579 149.495,384.618 162.500 C 377.546 181.036,376.955 181.740,372.141 177.341 C 367.927 173.489,366.997 168.615,369.308 162.500 C 375.422 146.325,375.098 143.713,367.299 146.330 C 348.236 152.728,329.304 176.070,324.800 198.730 L 324.547 200.000 329.265 200.000 L 333.983 200.000 332.655 198.145 C 329.565 193.830,330.430 192.780,337.566 192.178 C 340.215 191.955,344.844 191.347,347.852 190.826 C 366.532 187.591,372.404 187.996,377.012 192.837 C 379.543 195.496,380.927 199.202,379.590 199.741 C 379.321 199.850,383.039 199.952,387.850 199.969 L 396.599 200.000 396.325 193.262 C 392.089 89.149,310.851 7.911,206.738 3.675 L 200.000 3.401 200.000 70.646 M288.839 146.269 C 275.155 150.100,257.718 168.791,251.014 186.814 C 249.652 190.477,247.658 197.902,247.657 199.316 C 247.656 199.958,248.789 200.000,265.981 200.000 L 284.305 200.000 285.875 197.514 C 293.204 185.910,297.857 172.128,298.320 160.658 C 298.814 148.435,296.055 144.249,288.839 146.269 M3.675 206.738 C 7.911 310.851,89.149 392.089,193.262 396.325 L 200.000 396.599 200.000 313.308 L 200.000 230.016 198.807 230.278 C 194.519 231.220,193.036 230.526,189.960 226.140 C 185.509 219.792,185.588 217.574,190.665 206.342 C 192.147 203.063,193.359 200.294,193.359 200.190 C 193.359 200.085,186.318 200.000,177.712 200.000 L 162.064 200.000 157.859 204.395 C 151.515 211.024,145.964 217.188,146.161 217.385 C 146.257 217.481,148.398 217.123,150.917 216.590 C 169.685 212.615,176.536 213.220,180.558 219.208 C 182.994 222.836,182.007 223.861,175.658 224.289 C 169.320 224.716,161.435 226.124,150.839 228.720 C 138.159 231.827,137.702 231.687,133.192 223.317 C 130.341 218.028,131.222 215.579,139.523 205.704 C 141.311 203.577,143.096 201.424,143.490 200.918 L 144.206 200.000 138.997 200.017 L 133.789 200.034 130.361 205.645 C 120.482 221.816,113.095 228.477,102.653 230.629 C 84.633 234.344,72.766 219.512,78.728 200.727 C 78.945 200.044,78.655 200.000,73.925 200.000 L 68.892 200.000 62.598 212.793 C 59.136 219.829,56.021 226.283,55.676 227.134 C 54.278 230.582,52.056 231.075,48.555 228.717 C 43.514 225.323,42.329 221.670,41.927 208.301 L 41.678 200.000 35.345 200.000 L 29.011 200.000 26.162 206.152 C 22.856 213.290,19.342 221.562,17.795 225.850 C 16.092 230.571,14.593 231.522,12.125 229.446 C 7.528 225.577,7.650 218.414,12.506 207.227 C 13.625 204.648,14.787 201.968,15.088 201.270 L 15.635 200.000 9.518 200.000 L 3.401 200.000 3.675 206.738 M93.037 203.027 C 84.150 226.205,96.007 231.893,110.631 211.467 C 113.036 208.108,117.578 200.812,117.578 200.308 C 117.578 200.139,112.317 200.000,105.888 200.000 L 94.197 200.000 93.037 203.027 " stroke="none" fill="#ac84fb" fill-rule="evenodd"></path><path id="path4" d="" stroke="none" fill="#a484f4" fill-rule="evenodd"></path></g></svg>